<?xml version="1.0" standalone="no"?>
<!DOCTYPE svg PUBLIC "-//W3C//DTD SVG 20010904//EN"
 "http://www.w3.org/TR/2001/REC-SVG-20010904/DTD/svg10.dtd">
<svg version="1.0" xmlns="http://www.w3.org/2000/svg"
 width="301.000000pt" height="301.000000pt" viewBox="0 0 301.000000 301.000000"
 preserveAspectRatio="xMidYMid meet">
<metadata>
Created by potrace 1.14, written by Peter Selinger 2001-2017
</metadata>
<g transform="translate(0.000000,301.000000) scale(0.100000,-0.100000)"
fill="#000000" stroke="none">
<path d="M886 2812 c-29 -6 -98 -51 -124 -81 -115 -129 -129 -385 -31 -581 85
-173 226 -275 361 -265 97 8 162 52 217 149 38 66 52 121 55 214 9 243 -135
491 -323 555 -38 14 -116 18 -155 9z"/>
<path d="M2005 2813 c-19 -4 -40 -12 -91 -35 -81 -37 -187 -177 -229 -303 -32
-94 -34 -105 -35 -210 -1 -131 34 -230 110 -306 128 -129 324 -89 467 96 35
46 87 153 99 205 4 19 10 42 12 50 3 8 6 60 7 114 3 112 -10 171 -57 253 -60
107 -171 161 -283 136z"/>
<path d="M211 2058 c-181 -51 -257 -293 -158 -503 129 -271 453 -315 571 -79
119 237 -64 577 -316 589 -35 1 -78 -2 -97 -7z"/>
<path d="M2630 2051 c-110 -39 -199 -127 -243 -242 -130 -334 137 -611 419
-433 252 158 267 567 24 672 -50 22 -146 23 -200 3z"/>
<path d="M1445 1688 c-70 -9 -169 -40 -240 -76 -163 -81 -368 -248 -498 -405
-18 -22 -40 -48 -49 -59 -10 -12 -39 -53 -65 -92 -27 -39 -51 -73 -54 -76 -14
-11 -93 -179 -116 -245 -31 -91 -38 -134 -37 -225 4 -257 261 -371 644 -286
21 5 209 63 315 97 51 17 198 22 266 10 36 -6 130 -31 209 -56 218 -69 265
-78 401 -78 299 2 450 163 400 425 -76 391 -516 890 -911 1032 -58 21 -100 30
-185 40 -11 1 -47 -1 -80 -6z"/>
</g>
</svg>
